<svg width="24" height="25" viewBox="0 0 24 25" fill="none" xmlns="http://www.w3.org/2000/svg">
<path d="M4 1.5C2.34531 1.5 1 2.84531 1 4.5V19.5C1 21.1547 2.34531 22.5 4 22.5H8.60312V15.6656H6.12813V12H8.60312V10.4203C8.60312 6.3375 10.45 4.44375 14.4625 4.44375C15.2219 4.44375 16.5344 4.59375 17.0734 4.74375V8.0625C16.7922 8.03438 16.3 8.01562 15.6859 8.01562C13.7172 8.01562 12.9578 8.76094 12.9578 10.6969V12H16.8766L16.2016 15.6656H12.9531V22.5H19C20.6547 22.5 22 21.1547 22 19.5V4.5C22 2.84531 20.6547 1.5 19 1.5H4Z" fill="white"/>
</svg>
