<svg width="32" height="32" viewBox="0 0 32 32" fill="none" xmlns="http://www.w3.org/2000/svg">
<path d="M5.33331 1.3335C3.12706 1.3335 1.33331 3.12725 1.33331 5.3335V25.3335C1.33331 27.5397 3.12706 29.3335 5.33331 29.3335H11.4708V20.221H8.17081V15.3335H11.4708V13.2272C11.4708 7.7835 13.9333 5.2585 19.2833 5.2585C20.2958 5.2585 22.0458 5.4585 22.7646 5.6585V10.0835C22.3896 10.046 21.7333 10.021 20.9146 10.021C18.2896 10.021 17.2771 11.0147 17.2771 13.596V15.3335H22.5021L21.6021 20.221H17.2708V29.3335H25.3333C27.5396 29.3335 29.3333 27.5397 29.3333 25.3335V5.3335C29.3333 3.12725 27.5396 1.3335 25.3333 1.3335H5.33331Z" fill="#A08C6F"/>
</svg>
