<svg width="24" height="25" viewBox="0 0 24 25" fill="none" xmlns="http://www.w3.org/2000/svg">
<path d="M10.1125 9.92344C9.82968 10.1011 9.58537 10.3337 9.39399 10.6075C9.20262 10.8812 9.06808 11.1905 8.99832 11.5172C8.92857 11.8438 8.92501 12.1811 8.98787 12.5092C9.05073 12.8372 9.17872 13.1493 9.36429 13.427C9.54985 13.7047 9.78921 13.9424 10.0682 14.126C10.3472 14.3096 10.6602 14.4355 10.9887 14.496C11.3172 14.5566 11.6544 14.5506 11.9806 14.4786C12.3067 14.4066 12.6151 14.2698 12.8875 14.0766C13.1703 13.8989 13.4146 13.6663 13.606 13.3925C13.7974 13.1188 13.9319 12.8095 14.0017 12.4828C14.0714 12.1562 14.075 11.8189 14.0121 11.4908C13.9493 11.1628 13.8213 10.8507 13.6357 10.573C13.4502 10.2953 13.2108 10.0576 12.9318 9.87396C12.6528 9.69035 12.3398 9.56455 12.0113 9.50399C11.6828 9.44344 11.3456 9.44936 11.0194 9.5214C10.6933 9.59344 10.3849 9.73015 10.1125 9.92344ZM16.7828 6.71719C16.5391 6.47344 16.2437 6.28125 15.9203 6.15469C15.0719 5.82188 13.2203 5.83594 12.025 5.85C11.8328 5.85 11.6547 5.85469 11.5 5.85469C11.3453 5.85469 11.1625 5.85469 10.9656 5.85C9.77031 5.83594 7.92812 5.81719 7.07969 6.15469C6.75625 6.28125 6.46563 6.47344 6.21719 6.71719C5.96875 6.96094 5.78125 7.25625 5.65469 7.57969C5.32188 8.42812 5.34063 10.2844 5.35 11.4797C5.35 11.6719 5.35469 11.85 5.35469 12C5.35469 12.15 5.35469 12.3281 5.35 12.5203C5.34063 13.7156 5.32188 15.5719 5.65469 16.4203C5.78125 16.7437 5.97344 17.0344 6.21719 17.2828C6.46094 17.5312 6.75625 17.7188 7.07969 17.8453C7.92812 18.1781 9.77969 18.1641 10.975 18.15C11.1672 18.15 11.3453 18.1453 11.5 18.1453C11.6547 18.1453 11.8375 18.1453 12.0344 18.15C13.2297 18.1641 15.0719 18.1828 15.9203 17.8453C16.2437 17.7188 16.5344 17.5266 16.7828 17.2828C17.0312 17.0391 17.2188 16.7437 17.3453 16.4203C17.6828 15.5766 17.6641 13.7297 17.65 12.5297C17.65 12.3328 17.6453 12.15 17.6453 11.9953C17.6453 11.8406 17.6453 11.6625 17.65 11.4609C17.6641 10.2656 17.6828 8.41875 17.3453 7.57031C17.2188 7.24687 17.0266 6.95625 16.7828 6.70781V6.71719ZM13.6375 8.80313C14.4859 9.37031 15.0719 10.2516 15.2734 11.25C15.475 12.2484 15.2641 13.2891 14.6969 14.1375C14.4156 14.5594 14.0547 14.9156 13.6375 15.1969C13.2203 15.4781 12.7469 15.6703 12.25 15.7687C11.2516 15.9656 10.2109 15.7594 9.3625 15.1922C8.51406 14.625 7.92812 13.7437 7.72656 12.7453C7.525 11.7469 7.73594 10.7063 8.29844 9.85781C8.86094 9.00938 9.74687 8.42344 10.7453 8.22187C11.7437 8.02031 12.7844 8.23125 13.6328 8.79375H13.6375V8.80313ZM15.0062 8.74219C14.8609 8.64375 14.7438 8.50312 14.6734 8.33906C14.6031 8.175 14.5891 7.99688 14.6219 7.81875C14.6547 7.64062 14.7437 7.48594 14.8656 7.35938C14.9875 7.23281 15.1516 7.14844 15.325 7.11563C15.4984 7.08281 15.6813 7.09687 15.8453 7.16719C16.0094 7.2375 16.15 7.35 16.2484 7.49531C16.3469 7.64062 16.3984 7.81406 16.3984 7.99219C16.3984 8.10938 16.375 8.22656 16.3328 8.33438C16.2906 8.44219 16.2203 8.54063 16.1406 8.625C16.0609 8.70937 15.9578 8.775 15.85 8.82187C15.7422 8.86875 15.625 8.89219 15.5078 8.89219C15.3297 8.89219 15.1562 8.84062 15.0109 8.74219H15.0062ZM22 4.5C22 2.84531 20.6547 1.5 19 1.5H4C2.34531 1.5 1 2.84531 1 4.5V19.5C1 21.1547 2.34531 22.5 4 22.5H19C20.6547 22.5 22 21.1547 22 19.5V4.5ZM17.7344 18.2344C16.8578 19.1109 15.7937 19.3875 14.5938 19.4484C13.3562 19.5187 9.64375 19.5187 8.40625 19.4484C7.20625 19.3875 6.14219 19.1109 5.26562 18.2344C4.38906 17.3578 4.1125 16.2937 4.05625 15.0938C3.98594 13.8562 3.98594 10.1438 4.05625 8.90625C4.11719 7.70625 4.38906 6.64219 5.26562 5.76562C6.14219 4.88906 7.21094 4.6125 8.40625 4.55625C9.64375 4.48594 13.3562 4.48594 14.5938 4.55625C15.7937 4.61719 16.8578 4.88906 17.7344 5.76562C18.6109 6.64219 18.8875 7.70625 18.9437 8.90625C19.0141 10.1391 19.0141 13.8469 18.9437 15.0891C18.8828 16.2891 18.6109 17.3531 17.7344 18.2297V18.2344Z" fill="white"/>
</svg>
