<svg width="32" height="32" viewBox="0 0 32 32" fill="none" xmlns="http://www.w3.org/2000/svg">
<path d="M13.4833 12.5647C13.1062 12.8017 12.7805 13.1118 12.5253 13.4768C12.2701 13.8418 12.0908 14.2542 11.9977 14.6897C11.9047 15.1253 11.9 15.575 11.9838 16.0124C12.0676 16.4498 12.2383 16.8659 12.4857 17.2362C12.7331 17.6065 13.0523 17.9234 13.4243 18.1682C13.7963 18.413 14.2136 18.5808 14.6516 18.6615C15.0895 18.7422 15.5392 18.7344 15.9741 18.6383C16.4089 18.5422 16.8201 18.36 17.1833 18.1022C17.5604 17.8653 17.8862 17.5552 18.1413 17.1902C18.3965 16.8252 18.5759 16.4128 18.6689 15.9773C18.7619 15.5417 18.7666 15.092 18.6828 14.6546C18.599 14.2172 18.4283 13.8011 18.1809 13.4308C17.9335 13.0605 17.6144 12.7436 17.2424 12.4988C16.8703 12.254 16.453 12.0862 16.0151 12.0055C15.5771 11.9247 15.1274 11.9326 14.6925 12.0287C14.2577 12.1248 13.8465 12.307 13.4833 12.5647ZM22.3771 8.28975C22.0521 7.96475 21.6583 7.7085 21.2271 7.53975C20.0958 7.096 17.6271 7.11475 16.0333 7.1335C15.7771 7.1335 15.5396 7.13975 15.3333 7.13975C15.1271 7.13975 14.8833 7.13975 14.6208 7.1335C13.0271 7.11475 10.5708 7.08975 9.43956 7.53975C9.00831 7.7085 8.62081 7.96475 8.28956 8.28975C7.95831 8.61475 7.70831 9.0085 7.53956 9.43975C7.09581 10.571 7.12081 13.046 7.13331 14.6397C7.13331 14.896 7.13956 15.1335 7.13956 15.3335C7.13956 15.5335 7.13956 15.771 7.13331 16.0272C7.12081 17.621 7.09581 20.096 7.53956 21.2272C7.70831 21.6585 7.96456 22.046 8.28956 22.3772C8.61456 22.7085 9.00831 22.9585 9.43956 23.1272C10.5708 23.571 13.0396 23.5522 14.6333 23.5335C14.8896 23.5335 15.1271 23.5272 15.3333 23.5272C15.5396 23.5272 15.7833 23.5272 16.0458 23.5335C17.6396 23.5522 20.0958 23.5772 21.2271 23.1272C21.6583 22.9585 22.0458 22.7022 22.3771 22.3772C22.7083 22.0522 22.9583 21.6585 23.1271 21.2272C23.5771 20.1022 23.5521 17.6397 23.5333 16.0397C23.5333 15.7772 23.5271 15.5335 23.5271 15.3272C23.5271 15.121 23.5271 14.8835 23.5333 14.6147C23.5521 13.021 23.5771 10.5585 23.1271 9.42725C22.9583 8.996 22.7021 8.6085 22.3771 8.27725V8.28975ZM18.1833 11.071C19.3146 11.8272 20.0958 13.0022 20.3646 14.3335C20.6333 15.6647 20.3521 17.0522 19.5958 18.1835C19.2208 18.746 18.7396 19.221 18.1833 19.596C17.6271 19.971 16.9958 20.2272 16.3333 20.3585C15.0021 20.621 13.6146 20.346 12.4833 19.5897C11.3521 18.8335 10.5708 17.6585 10.3021 16.3272C10.0333 14.996 10.3146 13.6085 11.0646 12.4772C11.8146 11.346 12.9958 10.5647 14.3271 10.296C15.6583 10.0272 17.0458 10.3085 18.1771 11.0585H18.1833V11.071ZM20.0083 10.9897C19.8146 10.8585 19.6583 10.671 19.5646 10.4522C19.4708 10.2335 19.4521 9.996 19.4958 9.7585C19.5396 9.521 19.6583 9.31475 19.8208 9.146C19.9833 8.97725 20.2021 8.86475 20.4333 8.821C20.6646 8.77725 20.9083 8.796 21.1271 8.88975C21.3458 8.9835 21.5333 9.1335 21.6646 9.32725C21.7958 9.521 21.8646 9.75225 21.8646 9.98975C21.8646 10.146 21.8333 10.3022 21.7771 10.446C21.7208 10.5897 21.6271 10.721 21.5208 10.8335C21.4146 10.946 21.2771 11.0335 21.1333 11.096C20.9896 11.1585 20.8333 11.1897 20.6771 11.1897C20.4396 11.1897 20.2083 11.121 20.0146 10.9897H20.0083ZM29.3333 5.3335C29.3333 3.12725 27.5396 1.3335 25.3333 1.3335H5.33331C3.12706 1.3335 1.33331 3.12725 1.33331 5.3335V25.3335C1.33331 27.5397 3.12706 29.3335 5.33331 29.3335H25.3333C27.5396 29.3335 29.3333 27.5397 29.3333 25.3335V5.3335ZM23.6458 23.646C22.4771 24.8147 21.0583 25.1835 19.4583 25.2647C17.8083 25.3585 12.8583 25.3585 11.2083 25.2647C9.60831 25.1835 8.18956 24.8147 7.02081 23.646C5.85206 22.4772 5.48331 21.0585 5.40831 19.4585C5.31456 17.8085 5.31456 12.8585 5.40831 11.2085C5.48956 9.6085 5.85206 8.18975 7.02081 7.021C8.18956 5.85225 9.61456 5.4835 11.2083 5.4085C12.8583 5.31475 17.8083 5.31475 19.4583 5.4085C21.0583 5.48975 22.4771 5.85225 23.6458 7.021C24.8146 8.18975 25.1833 9.6085 25.2583 11.2085C25.3521 12.8522 25.3521 17.796 25.2583 19.4522C25.1771 21.0522 24.8146 22.471 23.6458 23.6397V23.646Z" fill="#A08C6F"/>
</svg>
