<svg width="32" height="32" viewBox="0 0 32 32" fill="none" xmlns="http://www.w3.org/2000/svg">
<path d="M19.8177 11.809V16.4668C19.8177 16.5871 19.726 16.6788 19.6057 16.6788H18.8609C18.7865 16.6788 18.7234 16.6387 18.6891 16.5929L16.5521 13.7111V16.4726C16.5521 16.5929 16.4604 16.6845 16.3401 16.6845H15.5953C15.475 16.6845 15.3833 16.5929 15.3833 16.4726V11.8147C15.3833 11.6944 15.475 11.6028 15.5953 11.6028H16.3344C16.3974 11.6028 16.4719 11.6371 16.5062 11.6944L18.6432 14.5762V11.8147C18.6432 11.6944 18.7349 11.6028 18.8552 11.6028H19.6C19.7203 11.597 19.8177 11.6944 19.8177 11.8033V11.809ZM14.4495 11.597H13.7047C13.5844 11.597 13.4927 11.6887 13.4927 11.809V16.4668C13.4927 16.5871 13.5844 16.6788 13.7047 16.6788H14.4495C14.5698 16.6788 14.6615 16.5871 14.6615 16.4668V11.809C14.6615 11.7002 14.5698 11.597 14.4495 11.597ZM12.6505 15.4986H10.6109V11.809C10.6109 11.6887 10.5193 11.597 10.399 11.597H9.65417C9.53386 11.597 9.44219 11.6887 9.44219 11.809V16.4668C9.44219 16.5241 9.45938 16.57 9.49948 16.6101C9.53959 16.6444 9.58542 16.6674 9.64271 16.6674H12.6333C12.7536 16.6674 12.8453 16.5757 12.8453 16.4554V15.7106C12.8453 15.6017 12.7536 15.4986 12.6448 15.4986H12.6505ZM23.7479 11.597H20.7516C20.6427 11.597 20.5396 11.6887 20.5396 11.809V16.4668C20.5396 16.5757 20.6312 16.6788 20.7516 16.6788H23.7422C23.8625 16.6788 23.9542 16.5871 23.9542 16.4668V15.7163C23.9542 15.596 23.8625 15.5043 23.7422 15.5043H21.7083V14.7252H23.7422C23.8625 14.7252 23.9542 14.6335 23.9542 14.5132V13.7627C23.9542 13.6424 23.8625 13.5507 23.7422 13.5507H21.7083V12.7658H23.7422C23.8625 12.7658 23.9542 12.6741 23.9542 12.5538V11.809C23.9484 11.7002 23.8568 11.597 23.7422 11.597H23.7479ZM30.4956 6.68453L30.4957 24.0283C30.4899 26.9616 28.0837 29.3392 25.1446 29.3335L7.97187 29.3793C5.03854 29.3736 2.66094 26.9616 2.66667 24.0283L2.66666 6.68453C2.67239 3.7512 5.08436 1.3736 8.01769 1.37933L25.1904 1.3335C28.1238 1.33923 30.5014 3.74547 30.4956 6.68453ZM27.3 13.9116C27.3 9.1335 22.5047 5.2434 16.6208 5.2434C10.737 5.2434 5.94168 9.1335 5.94168 13.9116C5.94168 18.1913 9.74011 21.7835 14.8734 22.4653C16.1224 22.7345 15.9792 23.1929 15.6984 24.8772C15.6526 25.1465 15.4807 25.9314 16.6208 25.4559C17.7609 24.9804 22.7682 21.8351 25.0141 19.2569C26.5609 17.5554 27.3 15.8309 27.3 13.9231V13.9116Z" fill="#A08C6F"/>
</svg>
