<svg width="24" height="25" viewBox="0 0 24 25" fill="none" xmlns="http://www.w3.org/2000/svg">
<path d="M14.8633 9.35664V12.85C14.8633 12.9402 14.7945 13.009 14.7043 13.009H14.1457C14.0898 13.009 14.0426 12.9789 14.0168 12.9445L12.4141 10.7832V12.8543C12.4141 12.9445 12.3453 13.0133 12.2551 13.0133H11.6965C11.6062 13.0133 11.5375 12.9445 11.5375 12.8543V9.36094C11.5375 9.27071 11.6062 9.20196 11.6965 9.20196H12.2508C12.298 9.20196 12.3539 9.22774 12.3797 9.27071L13.9824 11.432V9.36094C13.9824 9.27071 14.0512 9.20196 14.1414 9.20196H14.7C14.7902 9.19766 14.8633 9.27071 14.8633 9.35235V9.35664ZM10.8371 9.19766H10.2785C10.1883 9.19766 10.1195 9.26641 10.1195 9.35664V12.85C10.1195 12.9402 10.1883 13.009 10.2785 13.009H10.8371C10.9273 13.009 10.9961 12.9402 10.9961 12.85V9.35664C10.9961 9.275 10.9273 9.19766 10.8371 9.19766ZM9.48789 12.1238H7.95821V9.35664C7.95821 9.26641 7.88946 9.19766 7.79922 9.19766H7.24063C7.15039 9.19766 7.08164 9.26641 7.08164 9.35664V12.85C7.08164 12.893 7.09453 12.9273 7.12461 12.9574C7.15469 12.9832 7.18906 13.0004 7.23203 13.0004H9.475C9.56523 13.0004 9.63398 12.9316 9.63398 12.8414V12.2828C9.63398 12.2012 9.56523 12.1238 9.48359 12.1238H9.48789ZM17.8109 9.19766H15.5637C15.482 9.19766 15.4047 9.26641 15.4047 9.35664V12.85C15.4047 12.9316 15.4734 13.009 15.5637 13.009H17.8066C17.8969 13.009 17.9656 12.9402 17.9656 12.85V12.2871C17.9656 12.1969 17.8969 12.1281 17.8066 12.1281H16.2812V11.5438H17.8066C17.8969 11.5438 17.9656 11.475 17.9656 11.3848V10.8219C17.9656 10.7316 17.8969 10.6629 17.8066 10.6629H16.2812V10.0742H17.8066C17.8969 10.0742 17.9656 10.0055 17.9656 9.91524V9.35664C17.9613 9.275 17.8926 9.19766 17.8066 9.19766H17.8109ZM22.8717 5.51328L22.8717 18.5211C22.8674 20.7211 21.0628 22.5043 18.8585 22.5L5.9789 22.5344C3.7789 22.5301 1.9957 20.7211 2 18.5211L1.99999 5.51328C2.00429 3.31328 3.81327 1.53008 6.01327 1.53437L18.8928 1.5C21.0928 1.5043 22.876 3.30898 22.8717 5.51328ZM20.475 10.9336C20.475 7.35001 16.8785 4.43243 12.4656 4.43243C8.05274 4.43243 4.45626 7.35001 4.45626 10.9336C4.45626 14.1434 7.30508 16.8375 11.1551 17.3488C12.0918 17.5508 11.9844 17.8945 11.7738 19.1578C11.7395 19.3598 11.6105 19.9484 12.4656 19.5918C13.3207 19.2352 17.0762 16.8762 18.7605 14.9426C19.9207 13.6664 20.475 12.373 20.475 10.9422V10.9336Z" fill="white"/>
</svg>
