<svg width="32" height="32" viewBox="0 0 32 32" fill="none" xmlns="http://www.w3.org/2000/svg">
<path d="M18.9583 15.346L13.0083 11.9647V18.7272L18.9583 15.346ZM25.3333 1.3335H5.33331C3.12706 1.3335 1.33331 3.12725 1.33331 5.3335V25.3335C1.33331 27.5397 3.12706 29.3335 5.33331 29.3335H25.3333C27.5396 29.3335 29.3333 27.5397 29.3333 25.3335V5.3335C29.3333 3.12725 27.5396 1.3335 25.3333 1.3335ZM26.2333 9.83975C26.7083 11.6272 26.7083 15.3522 26.7083 15.3522C26.7083 15.3522 26.7083 19.0772 26.2333 20.8585C25.9708 21.846 25.2021 22.5897 24.2208 22.8522C22.4521 23.3335 15.3333 23.3335 15.3333 23.3335C15.3333 23.3335 8.21456 23.3335 6.44581 22.8585C5.46456 22.596 4.69581 21.8522 4.43331 20.8647C3.95831 19.0772 3.95831 15.3522 3.95831 15.3522C3.95831 15.3522 3.95831 11.621 4.43331 9.83975C4.69581 8.85225 5.46456 8.07725 6.44581 7.81475C8.21456 7.3335 15.3333 7.3335 15.3333 7.3335C15.3333 7.3335 22.4521 7.3335 24.2208 7.81475C25.2021 8.07725 25.9708 8.85225 26.2333 9.83975Z" fill="#A08C6F"/>
</svg>
