<svg width="24" height="25" viewBox="0 0 24 25" fill="none" xmlns="http://www.w3.org/2000/svg">
<path d="M14.2188 12.0094L9.75625 9.47344V14.5453L14.2188 12.0094ZM19 1.5H4C2.34531 1.5 1 2.84531 1 4.5V19.5C1 21.1547 2.34531 22.5 4 22.5H19C20.6547 22.5 22 21.1547 22 19.5V4.5C22 2.84531 20.6547 1.5 19 1.5ZM19.675 7.87969C20.0312 9.22031 20.0312 12.0141 20.0312 12.0141C20.0312 12.0141 20.0312 14.8078 19.675 16.1437C19.4781 16.8844 18.9016 17.4422 18.1656 17.6391C16.8391 18 11.5 18 11.5 18C11.5 18 6.16094 18 4.83438 17.6437C4.09844 17.4469 3.52187 16.8891 3.325 16.1484C2.96875 14.8078 2.96875 12.0141 2.96875 12.0141C2.96875 12.0141 2.96875 9.21563 3.325 7.87969C3.52187 7.13906 4.09844 6.55781 4.83438 6.36094C6.16094 6 11.5 6 11.5 6C11.5 6 16.8391 6 18.1656 6.36094C18.9016 6.55781 19.4781 7.13906 19.675 7.87969Z" fill="white"/>
</svg>
